<svg xmlns="http://www.w3.org/2000/svg" width="120" height="121" viewBox="0 0 120 121" fill="none">
<path d="M77.9944 64.2445C80.4573 64.9238 82.9203 65.2685 85.3161 65.2685C89.0158 65.2685 92.1029 64.4586 94.4966 63.4668C92.1889 71.5597 86.6451 85.5239 75.6017 87.0965C74.5789 87.2422 73.7408 87.9506 73.4618 88.9042L71.0481 97.174C70.8446 97.8734 70.9653 98.622 71.3817 99.2289C71.7981 99.8358 72.4674 100.241 73.2174 100.339C74.0324 100.446 74.8632 100.5 75.6866 100.5C88.9424 100.5 102.07 87.2462 107.61 68.2689C110.861 57.1353 111.815 40.3968 103.805 29.8611C99.3229 23.9657 92.7837 20.8175 84.3689 20.503C84.3343 20.502 84.3007 20.501 84.2661 20.501C73.8835 20.501 64.6767 27.1992 61.876 36.7884C60.2029 42.521 60.9592 48.5329 64.0075 53.7209C67.0233 58.8506 71.9901 62.5896 77.9944 64.2445Z" fill="#F0F0F0"/>
<path d="M13.0016 53.7199C16.0174 58.8506 20.9842 62.5896 26.9885 64.2445C29.4514 64.9238 31.9144 65.2685 34.3092 65.2685C38.0089 65.2684 41.097 64.4585 43.4907 63.4668C41.183 71.5597 35.6393 85.5239 24.5947 87.0965C23.572 87.2422 22.7349 87.9506 22.4548 88.9042L20.0412 97.174C19.8377 97.8734 19.9583 98.622 20.3748 99.2289C20.7901 99.8358 21.4594 100.241 22.2104 100.339C23.0244 100.446 23.8552 100.5 24.6797 100.5C37.9354 100.5 51.0632 87.2462 56.6038 68.2689C59.8545 57.1353 60.8081 40.3968 52.7971 29.859C48.316 23.9647 41.7757 20.8155 33.362 20.502C33.3273 20.501 33.2938 20.5 33.2581 20.5C22.8765 20.5 13.6687 27.1982 10.868 36.7874C9.197 42.52 9.95436 48.5329 13.0016 53.7199Z" fill="#F0F0F0"/>
</svg>