<svg xmlns="http://www.w3.org/2000/svg" width="120" height="121" viewBox="0 0 120 121" fill="none">
    <path
        d="M42.0056 56.7555C39.5427 56.0762 37.0797 55.7315 34.6839 55.7315C30.9842 55.7315 27.8971 56.5415 25.5034 57.5332C27.8111 49.4403 33.3549 35.4761 44.3983 33.9035C45.4211 33.7578 46.2592 33.0494 46.5382 32.0958L48.9519 23.826C49.1554 23.1266 49.0347 22.378 48.6183 21.7711C48.2019 21.1642 47.5326 20.7592 46.7826 20.6608C45.9676 20.5543 45.1368 20.5 44.3134 20.5C31.0576 20.5 17.9299 33.7538 12.3903 52.7311C9.13851 63.8647 8.185 80.6032 16.1949 91.1389C20.6771 97.0343 27.2163 100.182 35.6311 100.497C35.6657 100.498 35.6993 100.499 35.7339 100.499C46.1165 100.499 55.3233 93.8008 58.124 84.2116C59.7971 78.479 59.0408 72.4671 55.9925 67.2791C52.9767 62.1494 48.0099 58.4104 42.0056 56.7555Z"
        fill="#F0F0F0" />
    <path
        d="M106.998 67.2801C103.983 62.1494 99.0158 58.4104 93.0115 56.7555C90.5486 56.0762 88.0856 55.7316 85.6908 55.7316C81.9911 55.7316 78.903 56.5415 76.5093 57.5332C78.817 49.4403 84.3607 35.4761 95.4053 33.9035C96.428 33.7578 97.2651 33.0494 97.5452 32.0958L99.9588 23.826C100.162 23.1266 100.042 22.378 99.6252 21.7711C99.2099 21.1642 98.5406 20.7592 97.7896 20.6608C96.9756 20.5543 96.1448 20.5 95.3203 20.5C82.0646 20.5 68.9368 33.7538 63.3962 52.7311C60.1454 63.8647 59.1919 80.6032 67.2029 91.141C71.684 97.0353 78.2243 100.184 86.638 100.498C86.6727 100.499 86.7062 100.5 86.7419 100.5C97.1235 100.5 106.331 93.8018 109.132 84.2126C110.803 78.48 110.046 72.4671 106.998 67.2801Z"
        fill="#F0F0F0" />
</svg>
